<?xml version="1.0" standalone="no"?>
<!DOCTYPE svg PUBLIC "-//W3C//DTD SVG 1.0//EN" "http://www.w3.org/TR/2001/REC-SVG-20010904/DTD/svg10.dtd">
<svg xmlns="http://www.w3.org/2000/svg" xmlns:xlink="http://www.w3.org/1999/xlink" id="body_1" width="133" height="150">

<g transform="matrix(1.3333334 0 0 1.3333334 0 0)">
	<path  d="M0 0L99.75 0L99.75 112.5L0 112.5z" stroke="none"  fill="#FFFFFF" fill-rule="evenodd" />
	<g transform="matrix(0.75 0 0 0.75 0 0)">
		<g transform="matrix(0.4166667 0 0 0.4166667 0.041669212 -0)">
			<g>
				<path  d="M173.42578 64.39844L230.42578 97.30078C 232.47656 98.44922 232.52344 101.69922 230.42578 102.80078C 230.42578 102.80078 162.67578 141.89844 162.67578 141.89844C 160.625 143.10156 158.22656 143 156.27344 141.89844L156.27344 141.89844L88.57422 102.80078C 86.52344 101.64844 86.42578 98.39844 88.57422 97.30078L88.57422 97.30078L145.52344 64.39844L145.52344 0L0.125 83.94922L0.125 251.85156L0.125 251.10156L0.125 251.85156L55.92578 219.64844L55.92578 153.85156C 55.875 151.5 58.67578 149.85156 60.726562 151.10156L60.726562 151.10156L128.47656 190.19922C 130.52344 191.39844 131.67578 193.55078 131.67578 195.75L131.67578 195.75L131.67578 273.94922C 131.72656 276.30078 128.97656 277.94922 126.92578 276.69922L126.92578 276.69922L69.92578 243.80078L14.074219 276.05078L159.47656 360L304.875 276.05078L249.125 243.85156L192.125 276.75C 190.125 277.94922 187.27344 276.39844 187.375 274C 187.375 274 187.375 195.80078 187.375 195.80078C 187.375 193.44922 188.67578 191.35156 190.57422 190.25L190.57422 190.25L258.27344 151.14844C 260.27344 149.89844 263.125 151.5 263.07422 153.89844L263.07422 153.89844L263.07422 219.69922L318.875 251.89844L318.875 83.94922L173.42578 0L173.42578 64.39844z" stroke="none"  fill="#FFFFFF" fill-rule="nonzero" />
			</g>
		</g>
	</g>
</g>
</svg>
