<?xml version="1.0" encoding="UTF-8"?>
<svg xmlns="http://www.w3.org/2000/svg" xmlns:xlink="http://www.w3.org/1999/xlink" width="133px" height="150px" viewBox="0 0 319 360" version="1.1">
<g id="surface1">
<path style=" stroke:none;fill-rule:nonzero;fill:rgb(100%,100%,100%);fill-opacity:1;" d="M 173.425781 64.398438 L 230.425781 97.300781 C 232.476562 98.449219 232.523438 101.699219 230.425781 102.800781 C 230.425781 102.800781 162.675781 141.898438 162.675781 141.898438 C 160.625 143.101562 158.226562 143 156.273438 141.898438 L 88.574219 102.800781 C 86.523438 101.648438 86.425781 98.398438 88.574219 97.300781 L 145.523438 64.398438 L 145.523438 0 L 0.125 83.949219 L 0.125 251.851562 L 0.125 251.101562 L 0.125 251.851562 L 55.925781 219.648438 L 55.925781 153.851562 C 55.875 151.5 58.675781 149.851562 60.726562 151.101562 L 128.476562 190.199219 C 130.523438 191.398438 131.675781 193.550781 131.675781 195.75 L 131.675781 273.949219 C 131.726562 276.300781 128.976562 277.949219 126.925781 276.699219 L 69.925781 243.800781 L 14.074219 276.050781 L 159.476562 360 L 304.875 276.050781 L 249.125 243.851562 L 192.125 276.75 C 190.125 277.949219 187.273438 276.398438 187.375 274 C 187.375 274 187.375 195.800781 187.375 195.800781 C 187.375 193.449219 188.675781 191.351562 190.574219 190.25 L 258.273438 151.148438 C 260.273438 149.898438 263.125 151.5 263.074219 153.898438 L 263.074219 219.699219 L 318.875 251.898438 L 318.875 83.949219 L 173.425781 0 Z M 173.425781 64.398438 "/>
</g>
</svg>
